<svg xmlns="http://www.w3.org/2000/svg" viewBox="0 0 800 450" width="800" height="450">
  <defs>
    <linearGradient id="bg" x1="0" y1="0" x2="800" y2="450" gradientUnits="userSpaceOnUse">
      <stop offset="0%" stop-color="#1c2845"/>
      <stop offset="100%" stop-color="#293b65"/>
    </linearGradient>
    <radialGradient id="glow" cx="400" cy="210" r="140" gradientUnits="userSpaceOnUse">
      <stop offset="0%" stop-color="#7A9AE0" stop-opacity="0.25"/>
      <stop offset="100%" stop-color="#7A9AE0" stop-opacity="0"/>
    </radialGradient>
  </defs>
  <rect width="800" height="450" fill="url(#bg)"/>
  <circle cx="680" cy="80" r="160" fill="none" stroke="white" stroke-width="1" opacity="0.06"/>
  <circle cx="120" cy="370" r="100" fill="none" stroke="white" stroke-width="1" opacity="0.05"/>
  <circle cx="400" cy="210" r="120" fill="url(#glow)"/>
  <circle cx="400" cy="210" r="75" fill="white" fill-opacity="0.06"/>
  <!-- puzzle/brain icon scaled 7x -->
  <g transform="translate(331.5, 157.5) scale(7)" stroke="white" stroke-width="1.5" fill="none" stroke-linecap="round" stroke-linejoin="round" opacity="0.88">
    <path d="M9.06 11.9l8.07-8.06a2.85 2.85 0 1 1 4.03 4.03l-8.06 8.08"/>
    <path d="M7.07 14.94c-1.66 0-3 1.35-3 3.02 0 1.33-2.5 1.52-2 2.02 1.08 1.1 2.49 2.02 4 2.02 2.2 0 4-1.8 4-4.04a3.01 3.01 0 0 0-3-3.02z"/>
  </g>
  <rect x="40" y="396" rx="12" ry="12" width="218" height="26" fill="white" fill-opacity="0.10"/>
  <text x="56" y="414" font-family="Arial, sans-serif" font-size="12" font-weight="600" fill="white" opacity="0.80">Brinquedos e estimulação</text>
  <text x="760" y="436" font-family="Arial, sans-serif" font-size="10" fill="white" opacity="0.3" text-anchor="end">vemaquipet.com.br</text>
</svg>
