<svg xmlns="http://www.w3.org/2000/svg" viewBox="0 0 800 450" width="800" height="450">
  <defs>
    <linearGradient id="bg" x1="0" y1="0" x2="800" y2="450" gradientUnits="userSpaceOnUse">
      <stop offset="0%" stop-color="#1c3828"/>
      <stop offset="100%" stop-color="#275540"/>
    </linearGradient>
    <radialGradient id="glow" cx="400" cy="210" r="140" gradientUnits="userSpaceOnUse">
      <stop offset="0%" stop-color="#88D9A0" stop-opacity="0.25"/>
      <stop offset="100%" stop-color="#88D9A0" stop-opacity="0"/>
    </radialGradient>
  </defs>
  <rect width="800" height="450" fill="url(#bg)"/>
  <circle cx="680" cy="80" r="160" fill="none" stroke="white" stroke-width="1" opacity="0.06"/>
  <circle cx="120" cy="370" r="100" fill="none" stroke="white" stroke-width="1" opacity="0.05"/>
  <circle cx="400" cy="210" r="120" fill="url(#glow)"/>
  <circle cx="400" cy="210" r="75" fill="white" fill-opacity="0.06"/>
  <!-- anchor/link (leash) or settings icon scaled 7x — using link icon -->
  <g transform="translate(331.5, 157.5) scale(7)" stroke="white" stroke-width="1.5" fill="none" stroke-linecap="round" stroke-linejoin="round" opacity="0.88">
    <path d="M10 13a5 5 0 0 0 7.54.54l3-3a5 5 0 0 0-7.07-7.07l-1.72 1.71"/>
    <path d="M14 11a5 5 0 0 0-7.54-.54l-3 3a5 5 0 0 0 7.07 7.07l1.71-1.71"/>
  </g>
  <rect x="40" y="396" rx="12" ry="12" width="232" height="26" fill="white" fill-opacity="0.10"/>
  <text x="56" y="414" font-family="Arial, sans-serif" font-size="12" font-weight="600" fill="white" opacity="0.80">Equipamentos para caminhadas</text>
  <text x="760" y="436" font-family="Arial, sans-serif" font-size="10" fill="white" opacity="0.3" text-anchor="end">vemaquipet.com.br</text>
</svg>
