<svg xmlns="http://www.w3.org/2000/svg" viewBox="0 0 800 450" width="800" height="450">
  <defs>
    <linearGradient id="bg" x1="0" y1="0" x2="800" y2="450" gradientUnits="userSpaceOnUse">
      <stop offset="0%" stop-color="#1e3530"/>
      <stop offset="100%" stop-color="#2c5248"/>
    </linearGradient>
    <radialGradient id="glow" cx="400" cy="210" r="140" gradientUnits="userSpaceOnUse">
      <stop offset="0%" stop-color="#88D9C0" stop-opacity="0.25"/>
      <stop offset="100%" stop-color="#88D9C0" stop-opacity="0"/>
    </radialGradient>
  </defs>
  <rect width="800" height="450" fill="url(#bg)"/>
  <circle cx="680" cy="80" r="160" fill="none" stroke="white" stroke-width="1" opacity="0.06"/>
  <circle cx="120" cy="370" r="100" fill="none" stroke="white" stroke-width="1" opacity="0.05"/>
  <circle cx="400" cy="210" r="120" fill="url(#glow)"/>
  <circle cx="400" cy="210" r="75" fill="white" fill-opacity="0.06"/>
  <!-- package icon scaled 7x (itens para filhote) -->
  <g transform="translate(331.5, 157.5) scale(7)" stroke="white" stroke-width="1.5" fill="none" stroke-linecap="round" stroke-linejoin="round" opacity="0.88">
    <line x1="16.5" y1="9.4" x2="7.55" y2="4.24"/>
    <path d="M21 16V8a2 2 0 0 0-1-1.73l-7-4a2 2 0 0 0-2 0l-7 4A2 2 0 0 0 3 8v8a2 2 0 0 0 1 1.73l7 4a2 2 0 0 0 2 0l7-4A2 2 0 0 0 21 16z"/>
    <polyline points="3.27 6.96 12 12.01 20.73 6.96"/>
    <line x1="12" y1="22.08" x2="12" y2="12"/>
  </g>
  <rect x="40" y="396" rx="12" ry="12" width="204" height="26" fill="white" fill-opacity="0.10"/>
  <text x="56" y="414" font-family="Arial, sans-serif" font-size="12" font-weight="600" fill="white" opacity="0.80">Preparação para o filhote</text>
  <text x="760" y="436" font-family="Arial, sans-serif" font-size="10" fill="white" opacity="0.3" text-anchor="end">vemaquipet.com.br</text>
</svg>
