<svg xmlns="http://www.w3.org/2000/svg" viewBox="0 0 800 450" width="800" height="450">
  <defs>
    <linearGradient id="bg" x1="0" y1="0" x2="800" y2="450" gradientUnits="userSpaceOnUse">
      <stop offset="0%" stop-color="#362018"/>
      <stop offset="100%" stop-color="#523022"/>
    </linearGradient>
    <radialGradient id="glow" cx="400" cy="210" r="140" gradientUnits="userSpaceOnUse">
      <stop offset="0%" stop-color="#D9906A" stop-opacity="0.28"/>
      <stop offset="100%" stop-color="#D9906A" stop-opacity="0"/>
    </radialGradient>
  </defs>
  <rect width="800" height="450" fill="url(#bg)"/>
  <circle cx="680" cy="80" r="160" fill="none" stroke="white" stroke-width="1" opacity="0.06"/>
  <circle cx="120" cy="370" r="100" fill="none" stroke="white" stroke-width="1" opacity="0.05"/>
  <circle cx="400" cy="210" r="120" fill="url(#glow)"/>
  <circle cx="400" cy="210" r="75" fill="white" fill-opacity="0.06"/>
  <!-- utensils icon scaled 7x (food/feeding) -->
  <g transform="translate(331.5, 157.5) scale(7)" stroke="white" stroke-width="1.5" fill="none" stroke-linecap="round" stroke-linejoin="round" opacity="0.88">
    <path d="M3 2v7c0 1.1.9 2 2 2h4a2 2 0 0 0 2-2V2"/>
    <path d="M7 2v20"/>
    <path d="M21 15V2v0a5 5 0 0 0-5 5v6c0 1.1.9 2 2 2h3Zm0 0v7"/>
  </g>
  <rect x="40" y="396" rx="12" ry="12" width="218" height="26" fill="white" fill-opacity="0.10"/>
  <text x="56" y="414" font-family="Arial, sans-serif" font-size="12" font-weight="600" fill="white" opacity="0.80">Alimentação e rotina pet</text>
  <text x="760" y="436" font-family="Arial, sans-serif" font-size="10" fill="white" opacity="0.3" text-anchor="end">vemaquipet.com.br</text>
</svg>
