<svg xmlns="http://www.w3.org/2000/svg" viewBox="0 0 800 450" width="800" height="450">
  <defs>
    <linearGradient id="bg" x1="0" y1="0" x2="800" y2="450" gradientUnits="userSpaceOnUse">
      <stop offset="0%" stop-color="#3a2516"/>
      <stop offset="100%" stop-color="#5c3a22"/>
    </linearGradient>
    <radialGradient id="glow" cx="400" cy="210" r="160" gradientUnits="userSpaceOnUse">
      <stop offset="0%" stop-color="#D9906A" stop-opacity="0.4"/>
      <stop offset="100%" stop-color="#D9906A" stop-opacity="0"/>
    </radialGradient>
  </defs>
  <rect width="800" height="450" fill="url(#bg)"/>
  <circle cx="710" cy="60" r="200" fill="none" stroke="white" stroke-width="1" opacity="0.06"/>
  <circle cx="710" cy="60" r="140" fill="none" stroke="white" stroke-width="1" opacity="0.06"/>
  <circle cx="90" cy="390" r="110" fill="none" stroke="white" stroke-width="1" opacity="0.05"/>
  <circle cx="400" cy="210" r="140" fill="url(#glow)"/>
  <circle cx="400" cy="210" r="88" fill="white" fill-opacity="0.07"/>
  <circle cx="400" cy="210" r="88" fill="none" stroke="white" stroke-width="1" opacity="0.14"/>
  <!-- sun icon scaled 8x -->
  <g transform="translate(304, 114) scale(8)" stroke="white" stroke-width="1.5" fill="none" stroke-linecap="round" stroke-linejoin="round" opacity="0.92">
    <circle cx="12" cy="12" r="4"/>
    <path d="M12 2v2M12 20v2M4.93 4.93l1.41 1.41M17.66 17.66l1.41 1.41M2 12h2M20 12h2M6.34 17.66l-1.41 1.41M19.07 4.93l-1.41 1.41"/>
  </g>
  <rect x="40" y="396" rx="12" ry="12" width="162" height="26" fill="white" fill-opacity="0.12"/>
  <text x="56" y="414" font-family="Arial, sans-serif" font-size="12" font-weight="600" fill="white" opacity="0.85">Rotina e Bem-estar</text>
  <text x="760" y="436" font-family="Arial, sans-serif" font-size="10" fill="white" opacity="0.3" text-anchor="end">vemaquipet.com.br</text>
</svg>
